# xmcd
# Track frame offsets:
# 150
# 18660
# 32016
# 50644
# 69357
# 84923
# 102639
# 124316
# 141072
# 156674
# 170863
# 184212
# 198944
#
# Disc length: 2980 seconds
# Revision: 0
# Processed by: cddbd v1.4PL0 Copyright (c) Steve Scherf et al.
# Submitted via: VisiTrax 2.9.5.181 - For more info visit www.synapsa.com
#
DISCID=bf0ba20d
DTITLE=Alan Jackson - Drive
DYEAR=1900
DGENRE=Country
TTITLE0=Drive (For Daddy Gene)
TTITLE1=A Little Bluer Than That
TTITLE2=Bring On The Night
TTITLE3=Work In Progress
TTITLE4=The Sounds
TTITLE5=Designated Drinker (Duet with George Strait)
TTITLE6=Where Were You (When The World Stopped Turning)
TTITLE7=Thet'd Be Alright
TTITLE8=Once In A Lifetime Love
TTITLE9=When Love Comes Around
TTITLE10=I Slipped And Fell In Love
TTITLE11=First Love
TTITLE12=Where Were You (When The World Stopped Turning) Live  From CMA Awards
EXTD=
EXTT0=
EXTT1=
EXTT2=
EXTT3=
EXTT4=
EXTT5=
EXTT6=
EXTT7=
EXTT8=
EXTT9=
EXTT10=
EXTT11=
EXTT12=
PLAYORDER=
